<svg width="47" height="47" viewBox="0 0 47 47" fill="none" xmlns="http://www.w3.org/2000/svg">
<g id="Group 1359">
<g id="&#229;&#155;&#190;&#229;&#177;&#130; 2">
<g id="&#229;&#155;&#190;&#229;&#177;&#130; 1">
<path id="Vector" d="M23.3259 0.00157131C26.3536 0.0369186 29.3446 0.66826 32.1283 1.85955C34.9119 3.05084 37.4337 4.77874 39.5496 6.94461C41.6655 9.11048 43.334 11.6719 44.46 14.4826C45.586 17.2933 46.1473 20.2983 46.112 23.3259C46.0766 26.3536 45.4453 29.3446 44.254 32.1283C43.0627 34.9119 41.3348 37.4337 39.1689 39.5496C37.0031 41.6655 34.4416 43.334 31.6309 44.46C28.8202 45.586 25.8153 46.1473 22.7876 46.112C19.76 46.0766 16.7689 45.4453 13.9853 44.254C11.2016 43.0627 8.67983 41.3348 6.56395 39.1689C4.44808 37.0031 2.77951 34.4416 1.65354 31.6309C0.527563 28.8202 -0.033776 25.8153 0.0015713 22.7876C0.0369186 19.76 0.66826 16.7689 1.85955 13.9853C3.05084 11.2016 4.77874 8.67983 6.94461 6.56395C9.11048 4.44807 11.6719 2.77951 14.4826 1.65354C17.2933 0.527563 20.2983 -0.0337761 23.3259 0.00157131V0.00157131Z" fill="#7A89FD"/>
</g>
</g>
<path id="Vector 3" d="M18 12L14 19.5H23.5V12H18Z" fill="#D0D5FF"/>
<path id="Vector 4" d="M28 12H18L24.5 23.5H34.5L28 12Z" fill="white"/>
<path id="Vector 1" d="M27.5 34L31.5 26.5H22V34H27.5Z" fill="#D0D5FF"/>
<path id="Vector 2" d="M17.5 34H27.5L21 22.5H11L17.5 34Z" fill="white"/>
</g>
</svg>
